# xmcd
#
# Track frame offsets:
#	150
#	19322
#	31900
#	46299
#	64016
#	83183
#	98010
#	114754
#	132649
#	149892
#	163995
#	182656
#	199159
#	215517
#	234720
#	247862
#	266438
#	286057
#	301338
#	318987
#
# Disc length: 4461 seconds
#
# Revision: 4
# Processed by: cddbd v1.5.2PL0 Copyright (c) Steve Scherf et al.
# Submitted via: EasyCDDAExtractor 11.0.3.1
#
DISCID=20116b14
DTITLE=Lee Kernaghan - The Big Ones - Greastest Hits Volume 1
DYEAR=2004
DGENRE=Country-Male vocal-Aust
TTITLE0=Hat Town
TTITLE1=Boys From The Bush
TTITLE2=Something In The Water
TTITLE3=Goondiwindi Moon
TTITLE4=The Way It Is
TTITLE5=Leave Him In The Longyard
TTITLE6=She's My Ute
TTITLE7=When The Snow Falls On The Alice
TTITLE8=High Country
TTITLE9=Skinny Dippin'
TTITLE10=1959
TTITLE11=Gettin' Gone
TTITLE12=I'm From The Country
TTITLE13=Three Chain Road
TTITLE14=She Waits By The Sliprails
TTITLE15=Texas QLD 4385
TTITLE16=Electric Rodeo
TTITLE17=The Outback Club
TTITLE18=Missin' Slim
TTITLE19=Down Under
EXTD=YEAR: 2004
EXTT0=
EXTT1=
EXTT2=
EXTT3=
EXTT4=
EXTT5=
EXTT6=
EXTT7=
EXTT8=
EXTT9=
EXTT10=
EXTT11=
EXTT12=
EXTT13=
EXTT14=
EXTT15=
EXTT16=
EXTT17=
EXTT18=
EXTT19=
PLAYORDER=
